# Blender v2.78 (sub 0) OBJ File: ''
# www.blender.org
mtllib cube.mtl
o Cube_Cube.002
v -1.424708 -0.965718 -1.449957
v -1.424173 1.034282 -1.450493
v -0.010495 -0.965718 -0.035743
v -0.009959 1.034282 -0.036279
v -2.838922 -0.964960 -0.035744
v -2.838386 1.035040 -0.036279
v -1.424709 -0.964960 1.378470
v -1.424173 1.035040 1.377934
v -0.010495 -0.965718 -0.035743
v -1.424708 -0.965718 -1.449957
v -1.424173 1.034282 -1.450493
v -0.009959 1.034282 -0.036279
v -1.424709 -0.964960 1.378470
v -1.424173 1.035040 1.377934
v -2.838922 -0.964960 -0.035744
v -2.838386 1.035040 -0.036279
v -1.423637 3.034282 -1.451029
v -0.009423 3.034282 -0.036815
v -1.423637 3.035040 1.377398
v -2.837850 3.035040 -0.036815
v 1.404254 1.034282 1.377934
v -0.009959 1.035040 2.792148
v 1.404790 3.034282 1.377399
v -0.009423 3.035040 2.791612
v 1.404254 1.033524 -1.450493
v 1.404790 3.033525 -1.451028
v 2.818468 1.033524 -0.036279
v 2.819004 3.033525 -0.036815
v -0.010495 -0.965718 -0.035743
v 1.403718 -0.965718 1.378470
v 1.403718 -0.966475 -1.449957
v 2.817932 -0.966475 -0.035743
vn -0.7071 0.0004 0.7071
vn -0.7071 -0.0000 -0.7071
vn 0.7071 -0.0004 -0.7071
vn 0.7071 0.0000 0.7071
vn 0.0003 1.0000 -0.0003
vn -0.0003 -1.0000 0.0003
usemtl Material.006
s off
f 1//1 4//1 2//1
f 7//2 4//2 3//2
f 7//3 6//3 8//3
f 1//4 6//4 5//4
f 3//5 5//5 7//5
f 6//6 4//6 8//6
f 18//5 20//5 19//5
f 19//5 23//5 18//5
f 23//5 26//5 18//5
f 1//1 3//1 4//1
f 7//2 8//2 4//2
f 7//3 5//3 6//3
f 1//4 2//4 6//4
f 3//5 1//5 5//5
f 6//6 2//6 4//6
f 18//5 17//5 20//5
f 19//5 24//5 23//5
f 23//5 28//5 26//5
usemtl Material.007
f 9//6 15//6 10//6
f 14//6 21//6 22//6
f 16//1 19//1 20//1
f 21//4 24//4 22//4
f 29//6 32//6 30//6
f 21//4 32//4 27//4
f 9//6 13//6 15//6
f 14//6 12//6 21//6
f 16//1 14//1 19//1
f 21//4 23//4 24//4
f 29//6 31//6 32//6
f 21//4 30//4 32//4
usemtl Material.008
f 13//1 16//1 15//1
f 14//1 24//1 19//1
f 21//4 28//4 23//4
f 13//1 14//1 16//1
f 14//1 22//1 24//1
f 21//4 27//4 28//4
usemtl Material.009
f 11//3 9//3 10//3
f 11//3 18//3 12//3
f 18//2 25//2 12//2
f 25//2 29//2 12//2
f 11//3 12//3 9//3
f 11//3 17//3 18//3
f 18//2 26//2 25//2
f 25//2 31//2 29//2
usemtl Material.010
f 12//4 13//4 9//4
f 16//2 10//2 15//2
f 16//2 17//2 11//2
f 26//3 27//3 25//3
f 27//3 31//3 25//3
f 12//1 30//1 21//1
f 12//4 14//4 13//4
f 16//2 11//2 10//2
f 16//2 20//2 17//2
f 26//3 28//3 27//3
f 27//3 32//3 31//3
f 12//1 29//1 30//1
